<svg width="485" height="151" viewBox="0 0 485 151" fill="none" xmlns="http://www.w3.org/2000/svg">
<g id="feedzai_logo_color">
<g id="Group">
<path id="Path" d="M26.576 54.2392C28.2672 52.3064 30.502 51.3399 33.2804 51.3399C34.4884 51.3399 35.636 51.4607 36.6628 51.7627C37.6896 52.0043 38.7164 52.3063 39.6828 52.6687L45.6624 39.5016C44.1524 38.7768 42.4612 38.2936 40.5284 38.052C38.5352 37.75 36.4816 37.6292 34.4884 37.6292C26.3344 37.6292 19.932 40.166 15.402 45.3C11.4156 49.7696 9.4828 55.4471 9.4828 62.2723V73.7483H0V87.4591H9.4828V151H23.9788V87.3987H38.4748V73.6879H23.9788V61.3059C23.9184 58.6483 24.8244 56.2324 26.576 54.2392Z" fill="#3DA1DA"/>
<path id="Shape" fill-rule="evenodd" clip-rule="evenodd" d="M82.8084 57.7419C91.1436 57.7419 98.6936 60.8223 105.579 66.8623C113.733 74.1707 117.78 83.8347 117.84 95.9751V98.7535H61.91C61.91 103.767 63.9636 107.934 68.1916 111.377C72.2988 114.82 77.0704 116.511 82.446 116.511C90.1168 116.511 96.64 113.008 101.895 105.941L114.156 112.766C110.109 117.961 105.338 122.008 99.9016 124.907C94.4656 127.866 88.788 129.376 82.8084 129.376C71.6344 129.376 62.4536 125.692 55.4472 118.323C48.9844 111.498 45.7228 103.223 45.7228 93.5591C45.7228 84.0159 48.924 75.8015 55.4472 68.9159C62.4536 61.4867 71.574 57.7419 82.8084 57.7419ZM68.7955 74.9557C65.2923 77.7341 62.9971 81.5997 61.8495 86.6129H100.807C99.2371 81.4185 96.7003 77.4925 93.3179 74.7745C89.8147 72.1773 85.6471 70.8485 80.9359 70.8485C76.2247 70.8485 72.1779 72.2377 68.7955 74.9557Z" fill="#3DA1DA"/>
<path id="Shape_2" fill-rule="evenodd" clip-rule="evenodd" d="M165.496 57.7419C173.831 57.7419 181.442 60.8223 188.267 66.8623C196.36 74.1707 200.468 83.8347 200.468 95.9751V98.7535H144.537C144.537 103.767 146.591 107.934 150.819 111.377C154.926 114.82 159.698 116.511 165.073 116.511C172.804 116.511 179.328 113.008 184.582 105.941L196.844 112.766C192.797 117.961 188.025 122.008 182.589 124.907C177.153 127.866 171.476 129.376 165.496 129.376C154.322 129.376 145.141 125.692 138.135 118.323C131.672 111.498 128.41 103.223 128.41 93.5591C128.41 84.0159 131.612 75.8015 138.135 68.9159C145.141 61.4867 154.262 57.7419 165.496 57.7419ZM151.483 74.9557C147.98 77.7341 145.685 81.5997 144.537 86.6129H183.495C181.925 81.4185 179.388 77.4925 176.005 74.7745C172.502 72.1773 168.335 70.8485 163.623 70.8485C158.912 70.8485 154.865 72.2377 151.483 74.9557Z" fill="#3DA1DA"/>
<path id="Shape_3" fill-rule="evenodd" clip-rule="evenodd" d="M258.391 60.5816C262.076 62.3936 264.914 64.87 266.968 67.9504L267.27 39.502H281.706V127.565H267.27V119.29C264.794 122.431 261.653 124.908 257.787 126.659C253.801 128.532 249.512 129.438 244.862 129.438C234.412 129.438 225.896 125.693 219.192 118.143C213.031 111.197 209.95 103.043 209.95 93.6204C209.95 84.5 213.091 76.4064 219.433 69.4C226.379 61.6688 235.077 57.8032 245.526 57.8032C250.298 57.8032 254.646 58.7092 258.391 60.5816ZM246.734 115.546C252.412 115.546 257.364 113.432 261.592 109.144C265.7 104.916 267.753 99.7212 267.814 93.5604C267.814 87.5204 265.7 82.326 261.592 78.0376C257.485 73.6888 252.532 71.5748 246.734 71.5748C240.754 71.5748 235.681 73.6888 231.574 77.9168C227.346 82.2052 225.232 87.46 225.232 93.5604C225.232 99.6608 227.346 104.855 231.574 109.144C235.802 113.432 240.815 115.546 246.734 115.546Z" fill="#3DA1DA"/>
<path id="Path_2" d="M296.202 59.6147V73.5067H325.979L293.423 127.565H349.414V113.854H317.523L350.139 59.6147H296.202Z" fill="#3DA1DA"/>
<path id="Shape_4" fill-rule="evenodd" clip-rule="evenodd" d="M405.344 60.5811C409.029 62.3931 411.868 64.8695 413.921 67.9499L414.163 59.6147H428.659V127.565H414.163V119.29C411.686 122.431 408.546 124.907 404.68 126.659C400.754 128.531 396.466 129.437 391.815 129.437C381.366 129.437 372.789 125.692 366.145 118.142C359.984 111.196 356.904 103.042 356.904 93.6199C356.904 84.4995 360.044 76.4059 366.386 69.3995C373.332 61.6683 382.03 57.8027 392.479 57.8027C397.311 57.8027 401.6 58.7087 405.344 60.5811ZM393.627 115.545C399.304 115.545 404.257 113.431 408.485 109.143C412.653 104.915 414.706 99.7203 414.706 93.5595C414.706 87.5195 412.592 82.3251 408.485 78.0367C404.378 73.6879 399.425 71.5739 393.627 71.5739C387.647 71.5739 382.574 73.6879 378.466 77.9159C374.238 82.2043 372.124 87.4591 372.124 93.5595C372.124 99.6599 374.238 104.854 378.466 109.143C382.694 113.431 387.708 115.545 393.627 115.545Z" fill="#3DA1DA"/>
<rect id="Rectangle" x="447.322" y="59.6147" width="14.496" height="67.95" fill="#3DA1DA"/>
</g>
<path id="Path_3" d="M484.71 0L479.817 44.8168L468.523 34.3072C466.771 35.334 441.403 49.9508 422.981 35.334C422.981 35.334 437.417 39.6224 452.637 19.5092L440.376 8.0936L484.71 0Z" fill="#69B745"/>
</g>
</svg>
